<?xml version="1.0" encoding="UTF-8" standalone="no"?><svg xmlns="http://www.w3.org/2000/svg" xmlns:xlink="http://www.w3.org/1999/xlink" fill="#cdc9c9" height="993.8" preserveAspectRatio="xMidYMid meet" version="1" viewBox="-14.0 -4.2 1392.6 993.8" width="1392.6" zoomAndPan="magnify"><g data-name="Layer 2"><g data-name="Layer 1" id="change1_1"><path d="M628.2,314c0,369.21-273.05,624.9-628.2,675.62H0c195.53-102.3,318.83-239.23,336.3-362.28C168.67,640.9,16.87,510,1.38,343.62-14,178.47,106.44,25.45,271.08,2.91c52.19-7.14,106.46-1.14,155.61,18a315.27,315.27,0,0,1,70.08,37.79c19,13.7,44.57,31.84,56.81,52.25C601.86,166.79,628.2,240.39,628.2,314Z"/><path d="M1378.61,314c0,369.21-273,624.9-628.2,675.62h0c195.53-102.3,318.83-239.23,336.29-362.28C919.07,640.9,767.28,510,751.79,343.62,736.42,178.47,856.85,25.45,1021.48,2.91c52.2-7.14,106.47-1.14,155.62,18a315.27,315.27,0,0,1,70.08,37.79c19,13.7,44.56,31.84,56.81,52.25C1352.27,166.79,1378.61,240.39,1378.61,314Z"/></g></g></svg>