<?xml version="1.0" encoding="UTF-8" standalone="no"?><svg xmlns="http://www.w3.org/2000/svg" xmlns:xlink="http://www.w3.org/1999/xlink" fill="#545454" height="400" preserveAspectRatio="xMidYMid meet" version="1" viewBox="0.0 0.0 400.0 400.0" width="400" zoomAndPan="magnify"><g id="change1_1"><path d="M52.25,58.7v109.06c0,3.56,2.89,6.45,6.45,6.45h109.06c3.56,0,6.45-2.89,6.45-6.45V58.7c0-3.56-2.89-6.45-6.45-6.45H58.7 C55.13,52.25,52.25,55.13,52.25,58.7z M65.14,65.14h96.16v96.16H65.14V65.14z M0,76.5V6.45C0,2.89,2.89,0,6.45,0H76.5 c3.56,0,6.45,2.89,6.45,6.45c0,3.56-2.89,6.45-6.45,6.45H12.9v63.6h0c0,3.56-2.89,6.45-6.45,6.45C2.89,82.95,0,80.06,0,76.5z M317.05,6.45c0-3.56,2.89-6.45,6.45-6.45h70.05c3.56,0,6.45,2.89,6.45,6.45V76.5c0,3.56-2.89,6.45-6.45,6.45 c-3.56,0-6.45-2.89-6.45-6.45V12.9h-63.6C319.94,12.9,317.05,10.01,317.05,6.45z M82.95,393.55c0,3.56-2.89,6.45-6.45,6.45H6.45 C2.89,400,0,397.11,0,393.55V323.5h0c0-3.56,2.89-6.45,6.45-6.45c3.56,0,6.45,2.89,6.45,6.45v63.6h63.6 C80.06,387.1,82.95,389.99,82.95,393.55z M400,323.5v70.05c0,3.56-2.89,6.45-6.45,6.45H323.5c-3.56,0-6.45-2.89-6.45-6.45 c0-3.56,2.89-6.45,6.45-6.45h63.6v-63.6c0-3.56,2.89-6.45,6.45-6.45C397.11,317.05,400,319.94,400,323.5z M232.24,174.21H341.3 c3.56,0,6.45-2.89,6.45-6.45V58.7c0-3.56-2.89-6.45-6.45-6.45H232.24c-3.56,0-6.45,2.89-6.45,6.45v109.06 C225.79,171.32,228.68,174.21,232.24,174.21z M238.69,65.14h96.16v96.16h-96.16V65.14z M167.76,225.79H58.7 c-3.56,0-6.45,2.89-6.45,6.45V341.3c0,3.56,2.89,6.45,6.45,6.45h109.06c3.56,0,6.45-2.89,6.45-6.45V232.24 C174.21,228.68,171.32,225.79,167.76,225.79z M161.31,334.86H65.14v-96.16h96.16V334.86z M251.42,315.67h-19.18 c-3.56,0-6.45,2.89-6.45,6.45v19.18c0,3.56,2.89,6.45,6.45,6.45h19.18c3.56,0,6.45-2.89,6.45-6.45v-19.18 C257.87,318.56,254.99,315.67,251.42,315.67z M244.97,334.86h-6.28v-6.28h6.28V334.86z M206.45,58.7v0.07 c0,3.56-2.89,6.45-6.45,6.45c-3.56,0-6.45-2.89-6.45-6.45V58.7c0-3.56,2.89-6.45,6.45-6.45C203.56,52.25,206.45,55.13,206.45,58.7z M206.45,81.71v86.05c0,3.56-2.89,6.45-6.45,6.45c-3.56,0-6.45-2.89-6.45-6.45V81.71c0-3.56,2.89-6.45,6.45-6.45 C203.56,75.26,206.45,78.15,206.45,81.71z M206.45,199.96v0.07c0,3.56-2.89,6.45-6.45,6.45c-3.56,0-6.45-2.89-6.45-6.45v-0.07 c0-3.56,2.89-6.45,6.45-6.45C203.56,193.51,206.45,196.4,206.45,199.96z M206.45,341.23v0.07c0,3.56-2.89,6.45-6.45,6.45 c-3.56,0-6.45-2.89-6.45-6.45v-0.07c0-3.56,2.89-6.45,6.45-6.45C203.56,334.78,206.45,337.67,206.45,341.23z M206.45,232.24v86.05 c0,3.56-2.89,6.45-6.45,6.45c-3.56,0-6.45-2.89-6.45-6.45v-86.05c0-3.56,2.89-6.45,6.45-6.45 C203.56,225.79,206.45,228.68,206.45,232.24z M58.77,193.55c3.56,0,6.45,2.89,6.45,6.45s-2.89,6.45-6.45,6.45H58.7 c-3.56,0-6.45-2.89-6.45-6.45s2.89-6.45,6.45-6.45H58.77z M174.21,200c0,3.56-2.89,6.45-6.45,6.45H81.71 c-3.56,0-6.45-2.89-6.45-6.45s2.89-6.45,6.45-6.45h86.05C171.32,193.55,174.21,196.44,174.21,200z M347.75,200 c0,3.56-2.89,6.45-6.45,6.45h-0.07c-3.56,0-6.45-2.89-6.45-6.45s2.89-6.45,6.45-6.45h0.07C344.87,193.55,347.75,196.44,347.75,200z M318.29,206.45h-86.05c-3.56,0-6.45-2.89-6.45-6.45s2.89-6.45,6.45-6.45h86.05c3.56,0,6.45,2.89,6.45,6.45 S321.85,206.45,318.29,206.45z M137.15,95.75v34.95c0,3.56-2.89,6.45-6.45,6.45H95.75c-3.56,0-6.45-2.89-6.45-6.45V95.75 c0-3.56,2.89-6.45,6.45-6.45h34.95C134.26,89.3,137.15,92.19,137.15,95.75z M310.7,95.75v34.95c0,3.56-2.89,6.45-6.45,6.45H269.3 c-3.56,0-6.45-2.89-6.45-6.45V95.75c0-3.56,2.89-6.45,6.45-6.45h34.95C307.81,89.3,310.7,92.19,310.7,95.75z M89.3,304.25V269.3 c0-3.56,2.89-6.45,6.45-6.45h34.95c3.56,0,6.45,2.89,6.45,6.45v34.95c0,3.56-2.89,6.45-6.45,6.45H95.75 C92.19,310.7,89.3,307.81,89.3,304.25z M225.79,251.71v-19.46h0c0-3.56,2.89-6.45,6.45-6.45c3.56,0,6.45,2.89,6.45,6.45v19.46 c0,3.56-2.89,6.45-6.45,6.45C228.68,258.16,225.79,255.27,225.79,251.71z M259.18,238.69l0,13.02c0,3.55-2.88,6.42-6.42,6.42 c-3.55,0-6.42-2.88-6.42-6.42l0-19.47c0-3.55,2.88-6.42,6.42-6.42c0.19,0,0.37,0.01,0.56,0.03c0.25-0.03,0.51-0.05,0.77-0.05h22.58 c3.56,0,6.45,2.89,6.45,6.45s-2.89,6.45-6.45,6.45H259.18z M347.75,232.24V341.3c0,3.56-2.89,6.45-6.45,6.45 c-3.56,0-6.45-2.89-6.45-6.45V232.24c0-3.56,2.89-6.45,6.45-6.45C344.87,225.79,347.75,228.68,347.75,232.24z M225.79,270.2v-0.07h0 c0-3.56,2.89-6.45,6.45-6.45c3.56,0,6.45,2.89,6.45,6.45v0.07c0,3.56-2.89,6.45-6.45,6.45C228.68,276.65,225.79,273.76,225.79,270.2 z M283.11,251.63v0.07c0,3.56-2.89,6.45-6.45,6.45s-6.45-2.89-6.45-6.45v-0.07c0-3.56,2.89-6.45,6.45-6.45 S283.11,248.07,283.11,251.63z M327.38,232.24c0,3.56-2.89,6.45-6.45,6.45h-22.4c-3.56,0-6.45-2.89-6.45-6.45s2.89-6.45,6.45-6.45 h22.4C324.49,225.79,327.38,228.68,327.38,232.24z M225.79,303.01v-13.16h0c0-3.56,2.89-6.45,6.45-6.45c3.56,0,6.45,2.89,6.45,6.45 v13.16c0,3.56-2.89,6.45-6.45,6.45C228.68,309.46,225.79,306.57,225.79,303.01z M320.93,347.75h-22.4c-3.56,0-6.45-2.89-6.45-6.45 s2.89-6.45,6.45-6.45h22.4c3.56,0,6.45,2.89,6.45,6.45S324.49,347.75,320.93,347.75z M292.08,322.13c0-3.56,2.89-6.45,6.45-6.45 h22.4c3.56,0,6.45,2.89,6.45,6.45c0,3.56-2.89,6.45-6.45,6.45h-22.4C294.97,328.58,292.08,325.69,292.08,322.13z M290.61,270.13 c0,3.56-2.89,6.45-6.45,6.45H269.4c-3.56,0-6.45-2.89-6.45-6.45s2.89-6.45,6.45-6.45h14.76 C287.72,263.68,290.61,266.57,290.61,270.13z M279.15,341.23v0.07c0,3.56-2.89,6.45-6.45,6.45c-3.56,0-6.45-2.89-6.45-6.45v-0.07 c0-3.56,2.89-6.45,6.45-6.45C276.27,334.78,279.15,337.67,279.15,341.23z M279.15,322.09v0.07c0,3.56-2.89,6.45-6.45,6.45 c-3.56,0-6.45-2.89-6.45-6.45v-0.07c0-3.56,2.89-6.45,6.45-6.45C276.27,315.64,279.15,318.53,279.15,322.09z M257.87,302.94v0.07 c0,3.56-2.89,6.45-6.45,6.45c-3.56,0-6.45-2.89-6.45-6.45v-0.07c0-3.56,2.89-6.45,6.45-6.45 C254.98,296.49,257.87,299.38,257.87,302.94z M257.87,286.51c0,3.56-2.89,6.45-6.45,6.45c-3.56,0-6.45-2.89-6.45-6.45 c0-3.57,2.89-6.45,6.45-6.45C254.98,280.05,257.87,282.94,257.87,286.51z M257.87,270.2c0,3.56-2.89,6.45-6.45,6.45 c-3.56,0-6.45-2.89-6.45-6.45v-0.07c0-3.56,2.89-6.45,6.45-6.45c3.56,0,6.45,2.89,6.45,6.45V270.2z M320.92,258.16 c-3.56,0-6.45-2.89-6.45-6.45v-0.07c0-3.56,2.89-6.45,6.45-6.45c3.56,0,6.45,2.89,6.45,6.45v0.07 C327.37,255.27,324.48,258.16,320.92,258.16z M286.9,251.63c0-3.56,2.89-6.45,6.45-6.45h9.16c3.56,0,6.45,2.89,6.45,6.45 c0,3.56-2.89,6.45-6.45,6.45h-9.16C289.79,258.08,286.9,255.19,286.9,251.63z M327.38,270.13c0-3.56-2.89-6.45-6.45-6.45h-19.18 c-3.56,0-6.45,2.89-6.45,6.45v19.18c0,3.56,2.89,6.45,6.45,6.45h19.18c3.56,0,6.45-2.89,6.45-6.45V270.13z M314.48,282.86h-6.28 v-6.28h6.28V282.86z M290.61,287.15c0,3.56-2.89,6.45-6.45,6.45H269.4c-3.56,0-6.45-2.89-6.45-6.45s2.89-6.45,6.45-6.45h14.76 C287.72,280.7,290.61,283.59,290.61,287.15z M290.61,303.01c0,3.56-2.89,6.45-6.45,6.45H269.4c-3.56,0-6.45-2.89-6.45-6.45 s2.89-6.45,6.45-6.45h14.76C287.72,296.56,290.61,299.45,290.61,303.01z M301.75,311.61c-3.56,0-6.45-2.89-6.45-6.45v-0.07 c0-3.56,2.89-6.45,6.45-6.45s6.45,2.89,6.45,6.45v0.07C308.2,308.72,305.31,311.61,301.75,311.61z M320.92,311.61 c-3.56,0-6.45-2.89-6.45-6.45v-0.07c0-3.56,2.89-6.45,6.45-6.45c3.56,0,6.45,2.89,6.45,6.45v0.07 C327.37,308.72,324.48,311.61,320.92,311.61z"/></g></svg>