<?xml version="1.0" encoding="UTF-8" standalone="no"?><svg xmlns="http://www.w3.org/2000/svg" xmlns:xlink="http://www.w3.org/1999/xlink" fill="#000000" height="90.3" preserveAspectRatio="xMidYMid meet" version="1" viewBox="0.0 0.0 90.4 90.3" width="90.4" zoomAndPan="magnify"><g id="change1_1"><path d="M82.8,90.3H7.5C3.3,90.3,0,87,0,82.8V7.5C0,3.3,3.3,0,7.5,0h75.4c4.1,0,7.5,3.3,7.5,7.5v75.4 C90.3,87,87,90.3,82.8,90.3z" fill="#a6a6a6"/></g><g fill="#ffffff" id="change2_1"><path d="M45.2,15.2c-6.2,0-11.3,7.1-11.5,16.7h2.9c0.1-7.6,3.9-13.7,8.6-13.7c4.7,0,8.5,6.1,8.6,13.7h2.9 C56.4,22.3,51.3,15.2,45.2,15.2"/><path d="M26.9,75.2h36.5c3.2,0,5.9-2.5,6.1-5.7l2.4-35.3c0.1-1.2-0.9-2.3-2.1-2.3h-49c-1.2,0-2.2,1-2.1,2.3 l2.3,35.3C21,72.7,23.7,75.2,26.9,75.2"/><path d="M45.7,67c-3.1,0-6.6-1.1-9.2-3.4c-0.8-0.7,0.5-2.3,1.4-1.5c3.8,3.4,8.8,3.5,11.9,2c1.9-0.9,2.9-2.4,2.7-4.1 c-0.3-3.3-2.5-4.4-6.6-6c-1.4-0.6-3-1.2-4.6-2.1c-2-1.1-3.3-2.5-3.7-4.3c-0.6-2.8,1.2-5.3,1.3-5.4c4.4-5.1,10.9-2.5,14-0.4 c0.2,1.1-0.2,1.7-1.2,1.7c-0.3-0.2-7-4.9-11.2,0c0,0-1.3,1.8-0.9,3.7c0.3,1.1,1.1,2.1,2.6,2.9c1.5,0.8,3,1.4,4.4,2 c4,1.6,7.4,3,7.9,7.8c0.2,2.5-1.2,4.8-3.8,6.1C49.3,66.6,47.6,67,45.7,67"/></g></svg>