<?xml version="1.0" encoding="UTF-8" standalone="no"?><svg xmlns="http://www.w3.org/2000/svg" xmlns:xlink="http://www.w3.org/1999/xlink" fill="#000000" height="124.5" preserveAspectRatio="xMidYMid meet" version="1" viewBox="37.8 37.8 124.5 124.5" width="124.5" zoomAndPan="magnify"><g fill="#737373" id="change1_1"><path d="M 73.167969 123.417969 L 97.609375 125.652344 L 105.757812 111.824219 L 120.605469 116.753906 L 148.234375 79.160156 L 155.371094 84.648438 L 155.082031 64.515625 L 135.921875 69.695312 L 143.007812 75.144531 L 118.136719 108.988281 L 102.78125 103.894531 L 94.050781 118.710938 L 71.105469 116.613281 L 54.105469 130.359375 L 58.253906 135.484375 L 73.167969 123.417969" fill="inherit"/><path d="M 157.5 152.753906 L 47.246094 152.753906 L 47.246094 42.5 C 47.246094 39.878906 45.121094 37.757812 42.5 37.757812 C 39.878906 37.757812 37.757812 39.878906 37.757812 42.5 L 37.757812 157.5 C 37.757812 158.78125 38.269531 159.9375 39.089844 160.789062 C 39.109375 160.808594 39.125 160.835938 39.144531 160.855469 C 39.296875 161.007812 39.46875 161.132812 39.640625 161.261719 C 39.710938 161.316406 39.773438 161.382812 39.847656 161.433594 C 39.984375 161.527344 40.140625 161.597656 40.289062 161.675781 C 40.410156 161.738281 40.527344 161.816406 40.652344 161.871094 C 40.871094 161.964844 41.109375 162.027344 41.34375 162.085938 C 41.410156 162.105469 41.472656 162.132812 41.542969 162.148438 C 41.851562 162.210938 42.171875 162.242188 42.5 162.242188 L 157.5 162.242188 C 160.121094 162.242188 162.242188 160.121094 162.242188 157.5 C 162.242188 154.878906 160.121094 152.753906 157.5 152.753906" fill="inherit"/></g></svg>