<?xml version="1.0" encoding="UTF-8" standalone="no"?><svg xmlns="http://www.w3.org/2000/svg" xmlns:xlink="http://www.w3.org/1999/xlink" data-name="Layer 1" fill="#737373" height="62" preserveAspectRatio="xMidYMid meet" version="1" viewBox="0.8 1.0 61.9 62.0" width="61.9" zoomAndPan="magnify"><g id="change1_1"><path d="M31.77051,34.06689A31.06824,31.06824,0,0,1,60.832,54.34473l1.87695-.68946A32.83193,32.83193,0,0,0,53,39.86353V21a.99984.99984,0,0,0-.73682-.96484L42,17.23608V9a2.002,2.002,0,0,0-2-2H38.41406L32.707,1.293a.99962.99962,0,0,0-1.41406,0L25.58594,7H24a2.002,2.002,0,0,0-2,2v8.23608L11.73682,20.03516A.99984.99984,0,0,0,11,21V39.46716A32.85949,32.85949,0,0,0,.832,53.65527l1.877.68946A31.06729,31.06729,0,0,1,31.77051,34.06689ZM42,19.30933l9,2.45434V38.3045a33.17382,33.17382,0,0,0-9-4.58734Zm-8,12.845c-.73926-.0506-1.48138-.08747-2.22949-.08747-.59412,0-1.18189.03748-1.77051.06946V30h4ZM32,3.41406,35.58594,7H28.41406ZM24,9H40V33.13922a32.71675,32.71675,0,0,0-4-.77527V29a1,1,0,0,0-1-1H29a1,1,0,0,0-1,1v3.30981a32.75237,32.75237,0,0,0-4,.70166ZM13,21.76367l9-2.45434v14.2586a33.16819,33.16819,0,0,0-9,4.39887Z" fill="inherit"/></g><g id="change1_2"><path d="M51,61V53a4.99373,4.99373,0,0,0-3.29022-4.67938,5.0001,5.0001,0,1,0-7.41956,0,4.995,4.995,0,0,0-2.64776,2.27716,4.98969,4.98969,0,0,0-1.93488-1.27789,4.95494,4.95494,0,0,0,1.289-3.13,5.00021,5.00021,0,1,0-8.71777,3.13422,4.99034,4.99034,0,0,0-1.92127,1.27362,4.995,4.995,0,0,0-2.65-2.27789,4.95494,4.95494,0,0,0,1.289-3.13,5.00021,5.00021,0,1,0-8.71777,3.13422A4.99412,4.99412,0,0,0,13,53v8a1,1,0,0,0,1,1H25a1,1,0,0,0,1,1H38a1,1,0,0,0,1-1H50A1,1,0,0,0,51,61ZM19.99854,42c.03808,0,.07666.001.11523.00244A2.986,2.986,0,0,1,22.22852,43H17.78235A2.983,2.983,0,0,1,19.99854,42Zm2.99188,3c0,.03851.0086.075.00714.11377A2.995,2.995,0,0,1,17.00958,45Zm-2.09394,9.852L20,56.19727l-.89648-1.34522L20,52.16211ZM25,60H15V53a3.00328,3.00328,0,0,1,3-3h.61249l-1.56122,4.68359a.99938.99938,0,0,0,.1167.8711l2,3a.99995.99995,0,0,0,1.66406,0l2-3a.99938.99938,0,0,0,.1167-.8711L21.38751,50H22a3.00328,3.00328,0,0,1,3,3Zm6.99854-17c.03808,0,.07666.001.11523.00244A2.986,2.986,0,0,1,34.22852,44H29.78235A2.983,2.983,0,0,1,31.99854,43Zm2.99188,3c0,.03851.0086.075.00714.11377A2.995,2.995,0,0,1,29.00958,46Zm-2.09394,9.852L32,57.19727l-.89648-1.34522L32,53.16211ZM37,61H27V54a3.00328,3.00328,0,0,1,3-3h.61249l-1.56122,4.68359a.99938.99938,0,0,0,.1167.8711l2,3a.99995.99995,0,0,0,1.66406,0l2-3a.99938.99938,0,0,0,.1167-.8711L33.38751,51H34a3.00328,3.00328,0,0,1,3,3Zm7-19a2.98179,2.98179,0,0,1,2.21973,1H41.78027A2.98179,2.98179,0,0,1,44,42Zm3,3a3,3,0,0,1-6,0Zm-2.10352,9.852L44,56.19727l-.89648-1.34522L44,52.16211ZM39,53a3.00328,3.00328,0,0,1,3-3h.61249l-1.56122,4.68359a.99938.99938,0,0,0,.1167.8711l2,3a.99995.99995,0,0,0,1.66406,0l2-3a.99938.99938,0,0,0,.1167-.8711L45.38751,50H46a3.00328,3.00328,0,0,1,3,3v7H39" fill="inherit"/></g><g id="change1_3"><path d="M26 12H38V14H26z" fill="inherit"/></g><g id="change1_4"><path d="M26 16H38V18H26z" fill="inherit"/></g><g id="change1_5"><path d="M26 20H38V22H26z" fill="inherit"/></g><g id="change1_6"><path d="M26 24H38V26H26z" fill="inherit"/></g><g id="change1_7"><path d="M49.90674,11.16309c2.01269.50683,2.42334.91748,2.92969,2.93066a1.2,1.2,0,0,0,2.32714-.00049c.50635-2.01269.917-2.42334,2.92823-2.92969a1.1994,1.1994,0,0,0,.00146-2.32666c-2.01269-.50683-2.42334-.91748-2.92969-2.93066a1.2,1.2,0,0,0-2.32714.00049c-.50635,2.01269-.917,2.42334-2.92823,2.92969a1.1994,1.1994,0,0,0-.00146,2.32666ZM54,8.50146A3.82567,3.82567,0,0,0,55.49854,10,3.82567,3.82567,0,0,0,54,11.49854,3.82879,3.82879,0,0,0,52.50146,10,3.82567,3.82567,0,0,0,54,8.50146Z" fill="inherit"/></g><g id="change1_8"><path d="M4.90674,15.16309c2.01269.50683,2.42334.91748,2.92969,2.93066a1.2,1.2,0,0,0,2.32714-.00049c.50635-2.01269.917-2.42334,2.92823-2.92969a1.1994,1.1994,0,0,0,.00146-2.32666c-2.01269-.50683-2.42334-.91748-2.92969-2.93066a1.2,1.2,0,0,0-2.32714.00049c-.50635,2.01269-.917,2.42334-2.92823,2.92969a1.1994,1.1994,0,0,0-.00146,2.32666ZM9,12.50146A3.82567,3.82567,0,0,0,10.49854,14,3.82567,3.82567,0,0,0,9,15.49854,3.82879,3.82879,0,0,0,7.50146,14,3.82567,3.82567,0,0,0,9,12.50146Z" fill="inherit"/></g><g id="change1_9"><path d="M15 25H20V27H15z" fill="inherit"/></g><g id="change1_10"><path d="M44 25H49V27H44z" fill="inherit"/></g><g id="change1_11"><path d="M15 29H20V31H15z" fill="inherit"/></g><g id="change1_12"><path d="M44 29H49V31H44z" fill="inherit"/></g></svg>